<svg width="16" height="25" viewBox="0 0 16 25" fill="none" xmlns="http://www.w3.org/2000/svg">
<path d="M10.31 2.80566L10.72 5.28566C9.87 4.97566 8.96 4.80566 8 4.80566C7.05 4.80566 6.13 4.97566 5.29 5.27566L5.7 2.80566H10.31ZM10.72 20.3257L10.31 22.8057H5.7L5.29 20.3357C6.13 20.6357 7.05 20.8057 8 20.8057C8.96 20.8057 9.87 20.6357 10.72 20.3257ZM12 0.805664H4L3.05 6.53566C1.19 7.99566 0 10.2557 0 12.8057C0 15.3557 1.19 17.6157 3.05 19.0757L4 24.8057H12L12.96 19.0757C14.81 17.6157 16 15.3457 16 12.8057C16 10.2657 14.81 7.99566 12.96 6.53566L12 0.805664Z" fill="#050835"/>
</svg>
