<svg width="15" height="15" viewBox="0 0 15 15" fill="none" xmlns="http://www.w3.org/2000/svg">
<path d="M10.8335 6.896C10.8335 7.01203 10.7874 7.12331 10.7054 7.20536C10.6233 7.2874 10.512 7.3335 10.396 7.3335H6.896C6.77996 7.3335 6.66868 7.2874 6.58664 7.20536C6.50459 7.12331 6.4585 7.01203 6.4585 6.896C6.4585 6.77996 6.50459 6.66868 6.58664 6.58664C6.66868 6.50459 6.77996 6.4585 6.896 6.4585H10.396C10.512 6.4585 10.6233 6.50459 10.7054 6.58664C10.7874 6.66868 10.8335 6.77996 10.8335 6.896ZM10.396 8.2085H6.896C6.77996 8.2085 6.66868 8.25459 6.58664 8.33664C6.50459 8.41868 6.4585 8.52996 6.4585 8.646C6.4585 8.76203 6.50459 8.87331 6.58664 8.95536C6.66868 9.0374 6.77996 9.0835 6.896 9.0835H10.396C10.512 9.0835 10.6233 9.0374 10.7054 8.95536C10.7874 8.87331 10.8335 8.76203 10.8335 8.646C10.8335 8.52996 10.7874 8.41868 10.7054 8.33664C10.6233 8.25459 10.512 8.2085 10.396 8.2085ZM13.021 3.396V12.146C13.021 12.3781 12.9288 12.6006 12.7647 12.7647C12.6006 12.9288 12.3781 13.021 12.146 13.021H3.396C3.16393 13.021 2.94137 12.9288 2.77728 12.7647C2.61318 12.6006 2.521 12.3781 2.521 12.146V3.396C2.521 3.16393 2.61318 2.94137 2.77728 2.77728C2.94137 2.61318 3.16393 2.521 3.396 2.521H12.146C12.3781 2.521 12.6006 2.61318 12.7647 2.77728C12.9288 2.94137 13.021 3.16393 13.021 3.396ZM3.396 12.146H4.7085V3.396H3.396V12.146ZM12.146 12.146V3.396H5.5835V12.146H12.146Z" fill="#5ED0F9"/>
</svg>
