<svg width="13" height="12" viewBox="0 0 13 12" fill="none" xmlns="http://www.w3.org/2000/svg">
<path d="M11.4381 4.15143L8.2518 3.87493L7.00755 0.945348C6.78372 0.412098 6.02005 0.412098 5.79622 0.945348L4.55197 3.88151L1.37222 4.15143C0.792885 4.19751 0.555885 4.92168 0.996968 5.30351L3.41305 7.39701L2.68889 10.5043C2.55722 11.0705 3.16947 11.5182 3.6698 11.2153L6.40189 9.56952L9.13397 11.2219C9.6343 11.5248 10.2466 11.0771 10.1149 10.5109L9.39072 7.39701L11.8068 5.30351C12.2479 4.92168 12.0175 4.19751 11.4381 4.15143V4.15143ZM6.40189 8.33843L3.92655 9.83285L4.58488 7.01518L2.39922 5.11918L5.28272 4.86901L6.40189 2.21593L7.52764 4.8756L10.4111 5.12576L8.22547 7.02176L8.8838 9.83943L6.40189 8.33843Z" fill="#FF8833"/>
</svg>
