<svg width="13" height="12" viewBox="0 0 13 12" fill="none" xmlns="http://www.w3.org/2000/svg">
<path d="M11.6383 4.15143L8.452 3.87493L7.20775 0.945348C6.98391 0.412098 6.22025 0.412098 5.99641 0.945348L4.75216 3.88151L1.57241 4.15143C0.99308 4.19751 0.75608 4.92168 1.19716 5.30351L3.61325 7.39701L2.88908 10.5043C2.75741 11.0705 3.36966 11.5182 3.87 11.2153L6.60208 9.56952L9.33416 11.2219C9.8345 11.5248 10.4467 11.0771 10.3151 10.5109L9.59091 7.39701L12.007 5.30351C12.4481 4.92168 12.2177 4.19751 11.6383 4.15143V4.15143ZM6.60208 8.33843L4.12675 9.83285L4.78508 7.01518L2.59941 5.11918L5.48291 4.86901L6.60208 2.21593L7.72783 4.8756L10.6113 5.12576L8.42566 7.02176L9.084 9.83943L6.60208 8.33843Z" fill="white" fill-opacity="0.9"/>
</svg>
