<svg width="42" height="42" viewBox="0 0 42 42" fill="none" xmlns="http://www.w3.org/2000/svg">
<path d="M19.6333 5.77233V1.67233C19.6333 1.30987 19.7773 0.962251 20.0336 0.705951C20.2899 0.449652 20.6375 0.305664 21 0.305664C21.3625 0.305664 21.7101 0.449652 21.9664 0.705951C22.2227 0.962251 22.3667 1.30987 22.3667 1.67233V5.77233C22.3667 6.13479 22.2227 6.48241 21.9664 6.73871C21.7101 6.99501 21.3625 7.139 21 7.139C20.6375 7.139 20.2899 6.99501 20.0336 6.73871C19.7773 6.48241 19.6333 6.13479 19.6333 5.77233ZM31.9333 20.8057C31.9333 22.9681 31.2921 25.0819 30.0907 26.8799C28.8894 28.6779 27.1818 30.0792 25.184 30.9067C23.1862 31.7343 20.9879 31.9508 18.867 31.5289C16.7462 31.1071 14.798 30.0658 13.269 28.5367C11.7399 27.0076 10.6986 25.0595 10.2767 22.9387C9.85488 20.8178 10.0714 18.6195 10.8989 16.6217C11.7264 14.6239 13.1278 12.9163 14.9258 11.7149C16.7237 10.5136 18.8376 9.87233 21 9.87233C23.8987 9.8755 26.6778 11.0284 28.7275 13.0781C30.7773 15.1278 31.9302 17.9069 31.9333 20.8057ZM9.09975 10.8392C9.35619 11.0957 9.704 11.2398 10.0667 11.2398C10.4293 11.2398 10.7771 11.0957 11.0336 10.8392C11.29 10.5828 11.4341 10.235 11.4341 9.87233C11.4341 9.50967 11.29 9.16186 11.0336 8.90541L8.30025 6.17208C8.04381 5.91564 7.696 5.77157 7.33333 5.77157C6.97067 5.77157 6.62286 5.91564 6.36642 6.17208C6.10997 6.42852 5.96591 6.77633 5.96591 7.139C5.96591 7.50166 6.10997 7.84947 6.36642 8.10591L9.09975 10.8392ZM9.09975 30.7721L6.36642 33.5054C6.10997 33.7619 5.96591 34.1097 5.96591 34.4723C5.96591 34.835 6.10997 35.1828 6.36642 35.4392C6.62286 35.6957 6.97067 35.8398 7.33333 35.8398C7.696 35.8398 8.04381 35.6957 8.30025 35.4392L11.0336 32.7059C11.1606 32.5789 11.2613 32.4282 11.33 32.2623C11.3987 32.0964 11.4341 31.9186 11.4341 31.739C11.4341 31.5594 11.3987 31.3816 11.33 31.2157C11.2613 31.0498 11.1606 30.8991 11.0336 30.7721C10.9066 30.6451 10.7559 30.5444 10.59 30.4757C10.4241 30.4069 10.2462 30.3716 10.0667 30.3716C9.88709 30.3716 9.70928 30.4069 9.54338 30.4757C9.37747 30.5444 9.22673 30.6451 9.09975 30.7721ZM31.9333 11.239C32.1129 11.2391 32.2907 11.2039 32.4566 11.1353C32.6225 11.0667 32.7732 10.9661 32.9002 10.8392L35.6336 8.10591C35.89 7.84947 36.0341 7.50166 36.0341 7.139C36.0341 6.77633 35.89 6.42852 35.6336 6.17208C35.3771 5.91564 35.0293 5.77157 34.6667 5.77157C34.304 5.77157 33.9562 5.91564 33.6997 6.17208L30.9664 8.90541C30.7751 9.09655 30.6447 9.34016 30.5919 9.60541C30.5391 9.87066 30.5662 10.1456 30.6697 10.3955C30.7732 10.6453 30.9485 10.8589 31.1735 11.009C31.3984 11.1592 31.6629 11.2392 31.9333 11.239ZM32.9002 30.7721C32.6438 30.5156 32.296 30.3716 31.9333 30.3716C31.5707 30.3716 31.2229 30.5156 30.9664 30.7721C30.71 31.0285 30.5659 31.3763 30.5659 31.739C30.5659 32.1017 30.71 32.4495 30.9664 32.7059L33.6997 35.4392C33.8267 35.5662 33.9775 35.6669 34.1434 35.7357C34.3093 35.8044 34.4871 35.8398 34.6667 35.8398C34.8462 35.8398 35.0241 35.8044 35.19 35.7357C35.3559 35.6669 35.5066 35.5662 35.6336 35.4392C35.7606 35.3123 35.8613 35.1615 35.93 34.9956C35.9987 34.8297 36.0341 34.6519 36.0341 34.4723C36.0341 34.2928 35.9987 34.1149 35.93 33.949C35.8613 33.7831 35.7606 33.6324 35.6336 33.5054L32.9002 30.7721ZM7.33333 20.8057C7.33333 20.4432 7.18935 20.0956 6.93305 19.8393C6.67675 19.583 6.32913 19.439 5.96667 19.439H1.86667C1.5042 19.439 1.15659 19.583 0.900287 19.8393C0.643988 20.0956 0.5 20.4432 0.5 20.8057C0.5 21.1681 0.643988 21.5157 0.900287 21.772C1.15659 22.0283 1.5042 22.1723 1.86667 22.1723H5.96667C6.32913 22.1723 6.67675 22.0283 6.93305 21.772C7.18935 21.5157 7.33333 21.1681 7.33333 20.8057ZM21 34.4723C20.6375 34.4723 20.2899 34.6163 20.0336 34.8726C19.7773 35.1289 19.6333 35.4765 19.6333 35.839V39.939C19.6333 40.3015 19.7773 40.6491 20.0336 40.9054C20.2899 41.1617 20.6375 41.3057 21 41.3057C21.3625 41.3057 21.7101 41.1617 21.9664 40.9054C22.2227 40.6491 22.3667 40.3015 22.3667 39.939V35.839C22.3667 35.4765 22.2227 35.1289 21.9664 34.8726C21.7101 34.6163 21.3625 34.4723 21 34.4723ZM40.1333 19.439H36.0333C35.6709 19.439 35.3233 19.583 35.067 19.8393C34.8107 20.0956 34.6667 20.4432 34.6667 20.8057C34.6667 21.1681 34.8107 21.5157 35.067 21.772C35.3233 22.0283 35.6709 22.1723 36.0333 22.1723H40.1333C40.4958 22.1723 40.8434 22.0283 41.0997 21.772C41.356 21.5157 41.5 21.1681 41.5 20.8057C41.5 20.4432 41.356 20.0956 41.0997 19.8393C40.8434 19.583 40.4958 19.439 40.1333 19.439Z" fill="#EBCF39"/>
</svg>
