<svg width="17" height="22" viewBox="0 0 17 22" fill="none" xmlns="http://www.w3.org/2000/svg">
<path d="M2.25 0.00999999L12.25 0C13.35 0 14.25 0.9 14.25 2V6H12.25V5H2.25V17H12.25V16H14.25V20C14.25 21.1 13.35 22 12.25 22H2.25C1.15 22 0.25 21.1 0.25 20V2C0.25 0.9 1.15 0.00999999 2.25 0.00999999ZM2.25 20H12.25V19H2.25V20ZM2.25 3H12.25V2H2.25V3Z" fill="#0073EE"/>
<path d="M15.82 5L14.725 6.05242C15.055 6.65793 15.25 7.34273 15.25 8.07077C15.25 10.4567 13.2325 12.3958 10.75 12.3958V10.2333L7.75 13.1166L10.75 16V13.8375C14.065 13.8375 16.75 11.2569 16.75 8.07077C16.75 6.93906 16.405 5.88663 15.82 5Z" fill="#0073EE"/>
</svg>
