<svg width="21" height="22" viewBox="0 0 21 22" fill="none" xmlns="http://www.w3.org/2000/svg">
<path d="M2.38667 0.00999999L12.3867 0C13.4867 0 14.3867 0.9 14.3867 2V6H12.3867V5H2.38667V17H12.3867V16H14.3867V20C14.3867 21.1 13.4867 22 12.3867 22H2.38667C1.28667 22 0.386673 21.1 0.386673 20V2C0.386673 0.9 1.28667 0.00999999 2.38667 0.00999999ZM2.38667 20H12.3867V19H2.38667V20ZM2.38667 3H12.3867V2H2.38667V3Z" fill="#008039"/>
<path d="M12.6133 12.0533L9.83334 9.27333L8.88667 10.2133L12.6133 13.94L20.6133 5.94L19.6733 5L12.6133 12.0533Z" fill="#008039"/>
</svg>
