<svg width="17" height="24" viewBox="0 0 17 24" fill="none" xmlns="http://www.w3.org/2000/svg">
<path fill-rule="evenodd" clip-rule="evenodd" d="M10.8567 4.48L10.4467 2H5.83666L5.42666 4.47C6.26666 4.17 7.18666 4 8.13666 4C9.09666 4 10.0067 4.17 10.8567 4.48ZM10.4467 22L10.8567 19.52C10.0067 19.83 9.09666 20 8.13666 20C7.18666 20 6.26666 19.83 5.42666 19.53L5.83666 22H10.4467ZM4.13666 0H12.1367L13.0967 5.73C13.9567 6.40874 14.6741 7.26253 15.1956 8.23713L13.0999 8.63066C12.0195 7.04363 10.1984 6 8.13666 6C4.82666 6 2.13666 8.69 2.13666 12C2.13666 15.31 4.82666 18 8.13666 18C10.3586 18 12.3012 16.7878 13.3382 14.9897L15.723 14.5418C15.224 16.0282 14.2999 17.3204 13.0967 18.27L12.1367 24H4.13666L3.18666 18.27C1.32666 16.81 0.136658 14.55 0.136658 12C0.136658 9.45 1.32666 7.19 3.18666 5.73L4.13666 0Z" fill="#008039"/>
<path d="M8.86332 15.0533L6.08332 12.2733L5.13666 13.2133L8.86332 16.94L16.8633 8.94L15.9233 8L8.86332 15.0533Z" fill="#008039"/>
</svg>
