<svg width="19" height="19" viewBox="0 0 19 19" fill="none" xmlns="http://www.w3.org/2000/svg">
<path d="M5.5415 13.4677L9.03513 13.4558L16.6605 5.90334C16.9597 5.60409 17.1244 5.20667 17.1244 4.78392C17.1244 4.36117 16.9597 3.96376 16.6605 3.66451L15.4049 2.40892C14.8064 1.81042 13.7622 1.81359 13.1684 2.40655L5.5415 9.96063V13.4677ZM14.2855 3.52834L15.5434 4.78155L14.2791 6.03396L13.0235 4.77917L14.2855 3.52834ZM7.12484 10.6209L11.8986 5.89226L13.1542 7.14784L8.38121 11.8749L7.12484 11.8788V10.6209Z" fill="white"/>
<path d="M3.95833 16.625H15.0417C15.9149 16.625 16.625 15.9149 16.625 15.0417V8.1795L15.0417 9.76283V15.0417H6.45842C6.43783 15.0417 6.41646 15.0496 6.39588 15.0496C6.36975 15.0496 6.34363 15.0425 6.31671 15.0417H3.95833V3.95833H9.37888L10.9622 2.375H3.95833C3.08512 2.375 2.375 3.08512 2.375 3.95833V15.0417C2.375 15.9149 3.08512 16.625 3.95833 16.625Z" fill="white"/>
</svg>
