<svg width="17" height="22" viewBox="0 0 17 22" fill="none" xmlns="http://www.w3.org/2000/svg">
<path d="M2.75 0.00999999L12.75 0C13.85 0 14.75 0.9 14.75 2V6H12.75V5H2.75V17H12.75V16H14.75V20C14.75 21.1 13.85 22 12.75 22H2.75C1.65 22 0.75 21.1 0.75 20V2C0.75 0.9 1.65 0.00999999 2.75 0.00999999ZM2.75 20H12.75V19H2.75V20ZM2.75 3H12.75V2H2.75V3Z" fill="#B3311F"/>
<path d="M12.25 7L16.25 15H8.25L12.25 7ZM9.52933 14.2093H14.9707L12.25 8.76799L9.52933 14.2093ZM11.8547 12.2327V10.6513H12.6453V12.2327H11.8547ZM11.8547 13.814V13.0233H12.6453V13.814H11.8547Z" fill="#B3311F"/>
</svg>
