<svg width="20" height="20" viewBox="0 0 20 20" fill="none" xmlns="http://www.w3.org/2000/svg">
<path d="M0.928503 15.8194L0.574503 18.2944C0.552626 18.448 0.566799 18.6046 0.6159 18.7518C0.665002 18.899 0.747685 19.0328 0.857407 19.1425C0.96713 19.2522 1.10088 19.3349 1.24808 19.384C1.39528 19.4331 1.55188 19.4473 1.7055 19.4254L4.1805 19.0714C4.5555 19.0184 5.4955 16.4944 5.4955 16.4944C5.4955 16.4944 5.9675 16.8994 6.1605 16.9604C6.5725 17.0904 6.9735 16.6864 7.1085 16.2764L7.4955 14.5044C7.4955 14.5044 8.0725 14.7964 8.2815 14.8394C8.5475 14.8944 8.8055 14.7304 8.9885 14.5464C9.09844 14.4368 9.181 14.3028 9.2295 14.1554L9.4955 12.5044C9.4955 12.5044 10.1705 12.6914 10.4015 12.7184C10.6645 12.7484 10.9205 12.6144 11.1085 12.4254L12.2465 11.2884C13.2098 11.6005 14.2406 11.6408 15.2253 11.4047C16.21 11.1686 17.1105 10.6654 17.8275 9.95039C18.8572 8.91804 19.4354 7.51947 19.4354 6.06139C19.4354 4.6033 18.8572 3.20474 17.8275 2.17239C16.7952 1.1427 15.3966 0.564453 13.9385 0.564453C12.4804 0.564453 11.0819 1.1427 10.0495 2.17239C9.33431 2.88931 8.83093 3.78977 8.59484 4.77453C8.35875 5.75929 8.39912 6.79011 8.7115 7.75339L1.2105 15.2534C1.0574 15.4063 0.958384 15.6051 0.928503 15.8194ZM15.9995 4.00039C16.5451 4.54755 16.8514 5.28871 16.8514 6.06139C16.8514 6.83406 16.5451 7.57522 15.9995 8.12239L11.8775 4.00039C12.4247 3.45483 13.1658 3.14847 13.9385 3.14847C14.7112 3.14847 15.4523 3.45483 15.9995 4.00039Z" fill="#556EE6"/>
</svg>
