<svg width="17" height="22" viewBox="0 0 17 22" fill="none" xmlns="http://www.w3.org/2000/svg">
<path d="M2.75 0.00999999L12.75 0C13.85 0 14.75 0.9 14.75 2V6H12.75V5H2.75V17H12.75V16H14.75V20C14.75 21.1 13.85 22 12.75 22H2.75C1.65 22 0.75 21.1 0.75 20V2C0.75 0.9 1.65 0.00999999 2.75 0.00999999ZM2.75 20H12.75V19H2.75V20ZM2.75 3H12.75V2H2.75V3Z" fill="#B3B3B3"/>
<path d="M12.25 7C10.042 7 8.25 8.792 8.25 11C8.25 13.208 10.042 15 12.25 15C14.458 15 16.25 13.208 16.25 11C16.25 8.792 14.458 7 12.25 7ZM13.57 12.88L11.85 11.16V8.6H12.65V10.832L14.13 12.312L13.57 12.88Z" fill="#B3B3B3"/>
</svg>
