<svg width="17" height="24" viewBox="0 0 17 24" fill="none" xmlns="http://www.w3.org/2000/svg">
<path fill-rule="evenodd" clip-rule="evenodd" d="M11.22 4.48L10.81 2H6.2L5.79 4.47C6.63 4.17 7.55 4 8.5 4C9.46 4 10.37 4.17 11.22 4.48ZM10.81 22L11.22 19.52C10.37 19.83 9.46 20 8.5 20C7.55 20 6.63 19.83 5.79 19.53L6.2 22H10.81ZM4.5 0H12.5L13.46 5.73C14.0706 6.21187 14.6093 6.78197 15.057 7.4209L12.3866 7.43135C11.3391 6.539 9.98166 6 8.5 6C5.19 6 2.5 8.69 2.5 12C2.5 15.31 5.19 18 8.5 18C10.5155 18 12.3012 17.0026 13.3896 15.4751L15.7099 15.4661C15.1799 16.5645 14.4063 17.5232 13.46 18.27L12.5 24H4.5L3.55 18.27C1.69 16.81 0.5 14.55 0.5 12C0.5 9.45 1.69 7.19 3.55 5.73L4.5 0Z" fill="#B3B3B3"/>
<path d="M13.5 9C11.844 9 10.5 10.344 10.5 12C10.5 13.656 11.844 15 13.5 15C15.156 15 16.5 13.656 16.5 12C16.5 10.344 15.156 9 13.5 9ZM14.49 13.41L13.2 12.12V10.2H13.8V11.874L14.91 12.984L14.49 13.41Z" fill="#B3B3B3"/>
</svg>
