<svg width="20" height="20" viewBox="0 0 20 20" fill="none" xmlns="http://www.w3.org/2000/svg">
<path d="M8.33152 3.33268C5.5701 3.33268 3.33152 5.57126 3.33152 8.33268C3.33152 11.0941 5.5701 13.3327 8.33152 13.3327C11.0929 13.3327 13.3315 11.0941 13.3315 8.33268C13.3315 5.57126 11.0929 3.33268 8.33152 3.33268ZM1.66486 8.33268C1.66486 4.65078 4.64962 1.66602 8.33152 1.66602C12.0134 1.66602 14.9982 4.65078 14.9982 8.33268C14.9982 9.87327 14.4756 11.2918 13.5981 12.4207L18.0874 16.9101L16.9089 18.0886L12.4196 13.5992C11.2907 14.4768 9.87212 14.9993 8.33152 14.9993C4.64962 14.9993 1.66486 12.0146 1.66486 8.33268Z" fill="#161513"/>
</svg>
