<svg width="20" height="24" viewBox="0 0 20 24" fill="none" xmlns="http://www.w3.org/2000/svg">
<path fill-rule="evenodd" clip-rule="evenodd" d="M11.22 4.48L10.81 2H6.2L5.79 4.47C6.63 4.17 7.55 4 8.5 4C9.46 4 10.37 4.17 11.22 4.48ZM10.81 22L11.22 19.52C10.37 19.83 9.46 20 8.5 20C7.55 20 6.63 19.83 5.79 19.53L6.2 22H10.81ZM4.5 0H12.5L13.46 5.73C14.0706 6.21187 14.6093 6.78197 15.057 7.4209L12.3866 7.43135C11.3391 6.539 9.98166 6 8.5 6C5.19 6 2.5 8.69 2.5 12C2.5 15.31 5.19 18 8.5 18C10.5155 18 12.3012 17.0026 13.3896 15.4751L15.7099 15.4661C15.1799 16.5645 14.4063 17.5232 13.46 18.27L12.5 24H4.5L3.55 18.27C1.69 16.81 0.5 14.55 0.5 12C0.5 9.45 1.69 7.19 3.55 5.73L4.5 0Z" fill="#51504F"/>
<path d="M10.0009 16.6843L17.7752 9.95281C18.1356 9.6389 17.948 9.0506 17.4724 9.00327L7.23644 8.0146C6.84813 7.97355 6.55204 8.34654 6.66887 8.71294L7.42229 11.0936C7.50457 11.3516 7.76626 11.5126 8.03416 11.4613L15.637 10.1116L8.65452 13.4069C8.40802 13.5253 8.28783 13.808 8.37011 14.0661L9.13385 16.4434C9.25068 16.8098 9.70803 16.9426 10.0009 16.6843Z" fill="#51504F"/>
</svg>
