<svg width="23" height="22" viewBox="0 0 23 22" fill="none" xmlns="http://www.w3.org/2000/svg">
<path d="M2.7269 0.00999999L12.7269 0C13.8269 0 14.7269 0.9 14.7269 2V6H12.7269V5H2.7269V17H12.7269V16H14.7269V20C14.7269 21.1 13.8269 22 12.7269 22H2.7269C1.6269 22 0.726898 21.1 0.726898 20V2C0.726898 0.9 1.6269 0.00999999 2.7269 0.00999999ZM2.7269 20H12.7269V19H2.7269V20ZM2.7269 3H12.7269V2H2.7269V3Z" fill="#51504F"/>
<g clip-path="url(#clip0_129_2183)">
<path d="M11.19 15.5828L18.9643 8.85124C19.3247 8.53734 19.1371 7.94904 18.6615 7.9017L8.42552 6.91304C8.0372 6.87199 7.74111 7.24498 7.85794 7.61138L8.61136 9.99203C8.69364 10.2501 8.95534 10.4111 9.22324 10.3598L16.8261 9.01L9.8436 12.3053C9.59709 12.4237 9.4769 12.7065 9.55918 12.9645L10.3229 15.3419C10.4398 15.7083 10.8971 15.841 11.19 15.5828Z" fill="#51504F"/>
</g>
<defs>
<clipPath id="clip0_129_2183">
<rect width="12.9997" height="12.9997" fill="white" transform="translate(5.93857 5.66016) rotate(-17.6856)"/>
</clipPath>
</defs>
</svg>
